Coordinates
version=1
nRows=32
nColumns=12
inDegrees=yes

Units are S.I. units (second, meters, Newtons, ...)
Angles are in degrees

endheader
time	SC_y	SC_z	SC_x	AC_y	AC_z	AC_x	GH_y	GH_z	GH_yy	EL_x	PS_y
       0.0              -26.22          38.81          19.41          47.57         -9.647          14.48          33.28          57.32         -147.4          101.4          69.29
   0.04962              -26.22          38.81          19.42          47.57         -9.649          14.48          33.29          57.32         -147.4          101.4          69.29
   0.09923              -26.23           38.8          19.42          47.57          -9.65          14.48          33.29          57.31         -147.4          101.4          69.29
    0.1489              -26.23           38.8          19.42          47.57         -9.652          14.47          33.29          57.31         -147.3          101.4           69.3
    0.1985              -26.24           38.8          19.42          47.57         -9.653          14.47           33.3          57.31         -147.3          101.3           69.3
    0.2481              -26.24          38.79          19.42          47.56         -9.655          14.47           33.3           57.3         -147.3          101.3           69.3
    0.2977              -26.25          38.79          19.42          47.56         -9.657          14.47           33.3           57.3         -147.3          101.3           69.3
    0.3473              -26.25          38.78          19.43          47.56         -9.659          14.47          33.31          57.29         -147.3          101.3           69.3
    0.3969              -26.26          38.78          19.43          47.56         -9.661          14.47          33.31          57.29         -147.3          101.3           69.3
    0.4466              -26.27          38.78          19.43          47.56         -9.664          14.46          33.32          57.28         -147.2          101.3          69.31
    0.4962              -26.27          38.77          19.43          47.56         -9.666          14.46          33.32          57.28         -147.2          101.3          69.31
    0.5458              -26.28          38.76          19.44          47.55         -9.669          14.46          33.33          57.27         -147.2          101.3          69.31
    0.5954              -26.29          38.76          19.44          47.55         -9.672          14.46          33.33          57.26         -147.2          101.3          69.31
     0.645               -26.3          38.75          19.44          47.55         -9.675          14.45          33.34          57.26         -147.2          101.3          69.32
    0.6946              -26.31          38.75          19.45          47.55         -9.679          14.45          33.35          57.25         -147.1          101.3          69.32
    0.7443              -26.32          38.74          19.45          47.54         -9.682          14.45          33.36          57.24         -147.1          101.3          69.32
    0.7939              -26.33          38.73          19.45          47.54         -9.686          14.44          33.36          57.23         -147.1          101.3          69.32
    0.8435              -26.35          38.72          19.46          47.54         -9.691          14.44          33.37          57.22         -147.0          101.3          69.33
    0.8931              -26.36          38.71          19.46          47.54         -9.696          14.44          33.38          57.21         -147.0          101.3          69.33
    0.9427              -26.38           38.7          19.47          47.53         -9.701          14.43          33.39           57.2         -147.0          101.3          69.34
    0.9923              -26.39          38.69          19.47          47.53         -9.707          14.43          33.41          57.19         -146.9          101.3          69.34
     1.042              -26.41          38.68          19.48          47.52         -9.713          14.42          33.42          57.17         -146.9          101.2          69.35
     1.092              -26.43          38.66          19.49          47.52          -9.72          14.41          33.43          57.16         -146.8          101.2          69.35
     1.141              -26.45          38.65           19.5          47.51         -9.728          14.41          33.45          57.14         -146.8          101.2          69.36
     1.191              -26.48          38.63           19.5          47.51         -9.737           14.4          33.47          57.12         -146.7          101.2          69.37
      1.24              -26.51          38.61          19.51           47.5         -9.747          14.39          33.49           57.1         -146.6          101.2          69.38
      1.29              -26.54          38.59          19.53          47.49         -9.758          14.38          33.51          57.07         -146.5          101.2          69.38
      1.34              -26.58          38.56          19.54          47.48          -9.77          14.37          33.53          57.04         -146.5          101.1          69.39
     1.389              -26.62          38.54          19.55          47.47         -9.784          14.36          33.56          57.01         -146.4          101.1          69.41
     1.439              -26.66           38.5          19.57          47.46           -9.8          14.34          33.59          56.98         -146.2          101.1          69.42
     1.489              -26.71          38.47          19.59          47.45         -9.818          14.33          33.63          56.94         -146.1          101.1          69.43
     1.538              -26.77          38.43          19.61          47.43         -9.838          14.31          33.67          56.89         -145.9          101.0          69.45
